<svg width="176" height="46" viewBox="0 0 176 46" fill="none" xmlns="http://www.w3.org/2000/svg">
<path d="M39.932 39.0664L30.2548 19.7116C30.1451 19.4929 29.9219 19.3548 29.6773 19.3548H23.2949L23.3762 19.0032C25.9658 18.1187 27.7419 15.6638 27.7419 12.9032C27.7419 9.34578 24.8478 6.45158 21.2904 6.45158C17.7331 6.45158 14.8389 9.34578 14.8389 12.9032C14.8389 15.6638 16.615 18.1187 19.2046 19.0032L19.2859 19.3548H10.3229C10.0784 19.3548 9.85514 19.4929 9.74546 19.7116L0.0682233 39.0664C-0.0317748 39.2664 -0.0214524 39.5038 0.0966099 39.6942C0.214672 39.8838 0.421765 40 0.645632 40H39.3546C39.5785 40 39.7855 39.8838 39.9036 39.6942C40.021 39.5038 40.032 39.2664 39.932 39.0664V39.0664ZM18.8988 35.94L21.6685 38.7097H19.6221L14.6499 33.7374C14.3976 33.4851 13.9899 33.4851 13.7376 33.7374L8.76548 38.7097H6.71907L12.7144 32.7142C12.9667 32.4619 12.9667 32.0542 12.7144 31.8019L7.66679 26.7542L8.34871 25.3896L11.1564 28.1974C11.2829 28.3238 11.448 28.3871 11.6132 28.3871C11.7783 28.3871 11.9435 28.3238 12.0693 28.198L15.295 24.9722C15.4163 24.8516 15.4841 24.6871 15.4841 24.5161V20.6451H16.7744V25.5393L13.0925 29.2213C12.8402 29.4735 12.8402 29.8813 13.0925 30.1335L16.9634 34.0045C17.0892 34.1303 17.2544 34.1935 17.4195 34.1935C17.5847 34.1935 17.7498 34.1303 17.8756 34.0045L23.4929 28.3871H33.1495L33.7947 29.6774H24.5162C24.3445 29.6774 24.1807 29.7451 24.06 29.8664L18.8988 35.0277C18.6466 35.28 18.6466 35.6877 18.8988 35.94V35.94ZM17.7976 38.7097H10.59L14.1938 35.1058L17.7976 38.7097ZM16.1292 12.9032C16.1292 10.0574 18.4447 7.74191 21.2904 7.74191C24.1362 7.74191 26.4516 10.0574 26.4516 12.9032C26.4516 15.2161 24.8923 17.26 22.6601 17.8742C22.4317 17.9374 22.2562 18.12 22.2026 18.3509L21.2904 22.2974L20.3782 18.3509C20.3246 18.12 20.1491 17.9367 19.9208 17.8742C17.6885 17.26 16.1292 15.2161 16.1292 12.9032V12.9032ZM20.6614 25.3064C20.7298 25.5993 20.9898 25.8064 21.2904 25.8064C21.591 25.8064 21.851 25.5993 21.9194 25.3064L22.9968 20.6451H29.2786L32.5044 27.0967H23.2259C23.0542 27.0967 22.8904 27.1645 22.7697 27.2858L17.4195 32.6361L14.4609 29.6774L17.8756 26.2626C17.9969 26.1419 18.0647 25.9774 18.0647 25.8064V20.6451H19.584L20.6614 25.3064ZM10.7216 20.6451H14.1938V24.249L11.6132 26.8296L8.95709 24.1735L10.7216 20.6451ZM7.05906 27.9709L11.3461 32.258L4.89459 38.7097H1.68948L7.05906 27.9709ZM23.4929 38.7097L20.2672 35.4838L24.7832 30.9677H34.4398L37.0204 36.129H33.8934L31.5044 32.5451C31.3973 32.3838 31.2231 32.28 31.0315 32.2613C30.8367 32.2413 30.6483 32.3109 30.5115 32.4471L29.2903 33.6677L28.3019 31.9374C28.0729 31.5355 27.4109 31.5355 27.1819 31.9374L24.7871 36.129H23.2259V37.4193H37.6656L38.3107 38.7097H23.4929ZM29.2109 36.129H26.2729L27.7419 33.5587L29.2109 36.129ZM30.6967 36.129L29.9541 34.829L30.8676 33.9161L32.3431 36.129H30.6967Z" fill="white"/>
<path d="M23.871 12.9032H25.1613C25.1613 10.7684 23.4252 9.03226 21.2904 9.03226V10.3226C22.7136 10.3226 23.871 11.48 23.871 12.9032Z" fill="white"/>
<path d="M22.8381 14.9677L23.613 16C24.1484 15.5974 24.5716 15.0626 24.8381 14.4516L23.6562 13.9355C23.4794 14.3426 23.1962 14.6993 22.8381 14.9677V14.9677Z" fill="white"/>
<path d="M1.93584 9.03226C1.72036 9.03226 1.51908 9.14 1.39908 9.31935L0.108782 11.2548C-0.0357316 11.4716 -0.0357316 11.7535 0.108782 11.9703L1.39908 13.9058C1.51908 14.0858 1.72036 14.1935 1.93584 14.1935H5.16159V20C5.16159 20.3561 5.44997 20.6452 5.80674 20.6452H8.38734C8.7441 20.6452 9.03249 20.3561 9.03249 20V14.1935H13.5485C13.7866 14.1935 14.0053 14.0626 14.1176 13.8529C14.2298 13.6432 14.2169 13.3884 14.0853 13.191L13.0337 11.6129L14.0853 10.0355C14.2169 9.83742 14.2298 9.58323 14.1176 9.37355C14.0053 9.16387 13.7866 9.03226 13.5485 9.03226H9.03249V7.74194H12.2582C12.4737 7.74194 12.675 7.63419 12.795 7.45484L14.0853 5.51935C14.2298 5.30258 14.2298 5.02065 14.0853 4.80387L12.795 2.86839C12.675 2.68839 12.4737 2.58065 12.2582 2.58065H9.03249V0.645161C9.03249 0.289032 8.7441 0 8.38734 0H5.80674C5.44997 0 5.16159 0.289032 5.16159 0.645161V2.58065H0.645546C0.407486 2.58065 0.18878 2.71161 0.0765244 2.92129C-0.0357316 3.13097 -0.0228286 3.38581 0.108782 3.58323L1.16038 5.16129L0.108782 6.73871C-0.0228286 6.93677 -0.0357316 7.19097 0.0765244 7.40064C0.18878 7.61032 0.407486 7.74194 0.645546 7.74194H5.16159V9.03226H1.93584ZM7.74219 19.3548H6.45189V14.1935H7.74219V19.3548ZM11.7215 11.971L12.3434 12.9032H2.281L1.42102 11.6129L2.281 10.3226H12.3434L11.7215 11.2548C11.577 11.4716 11.577 11.7542 11.7215 11.971ZM6.45189 1.29032H7.74219V2.58065H6.45189V1.29032ZM2.47261 4.80323L1.85068 3.87097H11.9131L12.7731 5.16129L11.9131 6.45161H1.85068L2.47261 5.51935C2.61712 5.30258 2.61712 5.02 2.47261 4.80323V4.80323ZM6.45189 7.74194H7.74219V9.03226H6.45189V7.74194Z" fill="white"/>
<path d="M2.58109 10.9677H3.87138V12.2581H2.58109V10.9677Z" fill="white"/>
<path d="M5.16167 10.9677H6.45197V12.2581H5.16167V10.9677Z" fill="white"/>
<path d="M10.3229 4.51611H11.6132V5.80644H10.3229V4.51611Z" fill="white"/>
<path d="M7.74228 4.51611H9.03258V5.80644H7.74228V4.51611Z" fill="white"/>
<path d="M53.32 19.61H46.12V17H63.49V19.61H56.29V38H53.32V19.61ZM68.7166 24.77C69.2166 23.85 69.9566 23.15 70.9366 22.67C71.9166 22.19 73.1066 21.95 74.5066 21.95V24.74C74.3466 24.72 74.1266 24.71 73.8466 24.71C72.2866 24.71 71.0566 25.18 70.1566 26.12C69.2766 27.04 68.8366 28.36 68.8366 30.08V38H65.9566V22.1H68.7166V24.77ZM83.8169 21.95C86.0169 21.95 87.6969 22.49 88.8569 23.57C90.0369 24.65 90.6269 26.26 90.6269 28.4V38H87.8969V35.9C87.4169 36.64 86.7269 37.21 85.8269 37.61C84.9469 37.99 83.8969 38.18 82.6769 38.18C80.8969 38.18 79.4669 37.75 78.3869 36.89C77.3269 36.03 76.7969 34.9 76.7969 33.5C76.7969 32.1 77.3069 30.98 78.3269 30.14C79.3469 29.28 80.9669 28.85 83.1869 28.85H87.7469V28.28C87.7469 27.04 87.3869 26.09 86.6669 25.43C85.9469 24.77 84.8869 24.44 83.4869 24.44C82.5469 24.44 81.6269 24.6 80.7269 24.92C79.8269 25.22 79.0669 25.63 78.4469 26.15L77.2469 23.99C78.0669 23.33 79.0469 22.83 80.1869 22.49C81.3269 22.13 82.5369 21.95 83.8169 21.95ZM83.1569 35.96C84.2569 35.96 85.2069 35.72 86.0069 35.24C86.8069 34.74 87.3869 34.04 87.7469 33.14V30.92H83.3069C80.8669 30.92 79.6469 31.74 79.6469 33.38C79.6469 34.18 79.9569 34.81 80.5769 35.27C81.1969 35.73 82.0569 35.96 83.1569 35.96ZM109.734 22.1L102.774 38H99.8336L92.8736 22.1H95.8736L101.334 34.85L106.914 22.1H109.734ZM126.352 30.14C126.352 30.36 126.332 30.65 126.292 31.01H113.392C113.572 32.41 114.182 33.54 115.222 34.4C116.282 35.24 117.592 35.66 119.152 35.66C121.052 35.66 122.582 35.02 123.742 33.74L125.332 35.6C124.612 36.44 123.712 37.08 122.632 37.52C121.572 37.96 120.382 38.18 119.062 38.18C117.382 38.18 115.892 37.84 114.592 37.16C113.292 36.46 112.282 35.49 111.562 34.25C110.862 33.01 110.512 31.61 110.512 30.05C110.512 28.51 110.852 27.12 111.532 25.88C112.232 24.64 113.182 23.68 114.382 23C115.602 22.3 116.972 21.95 118.492 21.95C120.012 21.95 121.362 22.3 122.542 23C123.742 23.68 124.672 24.64 125.332 25.88C126.012 27.12 126.352 28.54 126.352 30.14ZM118.492 24.38C117.112 24.38 115.952 24.8 115.012 25.64C114.092 26.48 113.552 27.58 113.392 28.94H123.592C123.432 27.6 122.882 26.51 121.942 25.67C121.022 24.81 119.872 24.38 118.492 24.38ZM130.351 15.74H133.231V38H130.351V15.74ZM145.54 38.18C143.96 38.18 142.54 37.83 141.28 37.13C140.02 36.43 139.03 35.47 138.31 34.25C137.61 33.01 137.26 31.61 137.26 30.05C137.26 28.49 137.61 27.1 138.31 25.88C139.03 24.64 140.02 23.68 141.28 23C142.54 22.3 143.96 21.95 145.54 21.95C147.12 21.95 148.53 22.3 149.77 23C151.03 23.68 152.01 24.64 152.71 25.88C153.43 27.1 153.79 28.49 153.79 30.05C153.79 31.61 153.43 33.01 152.71 34.25C152.01 35.47 151.03 36.43 149.77 37.13C148.53 37.83 147.12 38.18 145.54 38.18ZM145.54 35.66C146.56 35.66 147.47 35.43 148.27 34.97C149.09 34.49 149.73 33.83 150.19 32.99C150.65 32.13 150.88 31.15 150.88 30.05C150.88 28.95 150.65 27.98 150.19 27.14C149.73 26.28 149.09 25.62 148.27 25.16C147.47 24.7 146.56 24.47 145.54 24.47C144.52 24.47 143.6 24.7 142.78 25.16C141.98 25.62 141.34 26.28 140.86 27.14C140.4 27.98 140.17 28.95 140.17 30.05C140.17 31.15 140.4 32.13 140.86 32.99C141.34 33.83 141.98 34.49 142.78 34.97C143.6 35.43 144.52 35.66 145.54 35.66ZM166.263 21.95C168.283 21.95 169.883 22.54 171.063 23.72C172.263 24.88 172.863 26.59 172.863 28.85V38H169.983V29.18C169.983 27.64 169.613 26.48 168.873 25.7C168.133 24.92 167.073 24.53 165.693 24.53C164.133 24.53 162.903 24.99 162.003 25.91C161.103 26.81 160.653 28.11 160.653 29.81V38H157.773V22.1H160.533V24.5C161.113 23.68 161.893 23.05 162.873 22.61C163.873 22.17 165.003 21.95 166.263 21.95Z" fill="white"/>
</svg>
